<svg width="202" height="86" viewBox="0 0 202 86" fill="none" xmlns="http://www.w3.org/2000/svg">
<path d="M38.1376 37.3357L19.2682 4.84866C19.2397 4.7994 19.1988 4.75852 19.1495 4.73013C19.1002 4.70175 19.0443 4.68688 18.9874 4.68701C18.9305 4.68715 18.8746 4.70228 18.8255 4.7309C18.7763 4.75951 18.7355 4.80059 18.7073 4.84998L0.043885 37.337C0.0151359 37.3868 0 37.4432 0 37.5007C0 37.5582 0.0151359 37.6146 0.043885 37.6644L18.9134 70.1514C18.9419 70.2007 18.9828 70.2416 19.0321 70.27C19.0815 70.2984 19.1374 70.3133 19.1943 70.3132C19.2512 70.3131 19.3071 70.2979 19.3563 70.2693C19.4055 70.2406 19.4462 70.1995 19.4744 70.1501L38.1383 37.6631C38.1669 37.6132 38.1818 37.5567 38.1817 37.4993C38.1816 37.4418 38.1664 37.3854 38.1376 37.3357V37.3357ZM43.8619 33.5691C43.8898 33.6184 43.9302 33.6594 43.9791 33.688C44.028 33.7166 44.0836 33.7317 44.1402 33.7319H53.8827C53.9397 33.7312 53.9954 33.7156 54.0445 33.6867C54.0935 33.6578 54.1342 33.6165 54.1623 33.567C54.1904 33.5175 54.2051 33.4615 54.2049 33.4046C54.2047 33.3476 54.1896 33.2917 54.1611 33.2425L37.9562 4.85027C37.9284 4.80097 37.8879 4.75993 37.839 4.73134C37.7901 4.70275 37.7345 4.68763 37.6779 4.68753H27.9355C27.8786 4.68821 27.8228 4.70378 27.7738 4.73271C27.7247 4.76163 27.6841 4.80289 27.656 4.85239C27.6278 4.90188 27.6131 4.95789 27.6133 5.01483C27.6136 5.07177 27.6287 5.12765 27.6572 5.17693L43.8619 33.5691ZM74.956 37.3369L56.3818 4.85042C56.3536 4.801 56.3129 4.7599 56.2638 4.73129C56.2147 4.70268 56.1588 4.68758 56.102 4.68753H46.3461C46.2891 4.68807 46.2333 4.70354 46.1841 4.73239C46.135 4.76125 46.0943 4.80248 46.066 4.85197C46.0378 4.90147 46.023 4.95751 46.0231 5.0145C46.0233 5.07149 46.0384 5.12745 46.0669 5.17679L64.5486 37.5L46.0665 69.8233C46.038 69.8726 46.0229 69.9286 46.0227 69.9856C46.0225 70.0426 46.0373 70.0986 46.0656 70.1481C46.0938 70.1976 46.1345 70.2388 46.1837 70.2677C46.2328 70.2965 46.2887 70.312 46.3457 70.3125H56.1015C56.1583 70.3124 56.214 70.2972 56.263 70.2686C56.3121 70.24 56.3527 70.199 56.3807 70.1497L74.956 37.6632C74.9844 37.6135 74.9994 37.5573 74.9994 37.5C74.9994 37.4428 74.9844 37.3865 74.956 37.3369V37.3369ZM53.6156 41.7359H43.8732C43.8165 41.736 43.7609 41.7511 43.712 41.7797C43.6632 41.8083 43.6227 41.8494 43.5949 41.8987L27.6574 69.8231C27.6288 69.8724 27.6137 69.9283 27.6135 69.9852C27.6133 70.0422 27.628 70.0982 27.6561 70.1477C27.6843 70.1972 27.7249 70.2384 27.7739 70.2674C27.823 70.2963 27.8787 70.3119 27.9357 70.3125H37.6782C37.7348 70.3124 37.7904 70.2973 37.8393 70.2687C37.8882 70.2401 37.9287 70.1991 37.9565 70.1498L53.894 42.2253C53.9225 42.176 53.9377 42.1201 53.9379 42.0632C53.9381 42.0062 53.9234 41.9502 53.8952 41.9007C53.8671 41.8512 53.8264 41.81 53.7773 41.781C53.7283 41.7521 53.6725 41.7366 53.6156 41.7359V41.7359Z" fill="#744EF9"/>
<path d="M95.768 33.294C93.808 33.294 92.044 32.958 90.476 32.286C88.908 31.586 87.676 30.606 86.78 29.346C85.884 28.086 85.436 26.616 85.436 24.936H90.56C90.672 26.196 91.162 27.232 92.03 28.044C92.926 28.856 94.172 29.262 95.768 29.262C97.42 29.262 98.708 28.87 99.632 28.086C100.556 27.274 101.018 26.238 101.018 24.978C101.018 23.998 100.724 23.2 100.136 22.584C99.576 21.968 98.862 21.492 97.994 21.156C97.154 20.82 95.978 20.456 94.466 20.064C92.562 19.56 91.008 19.056 89.804 18.552C88.628 18.02 87.62 17.208 86.78 16.116C85.94 15.024 85.52 13.568 85.52 11.748C85.52 10.068 85.94 8.598 86.78 7.338C87.62 6.078 88.796 5.112 90.308 4.44C91.82 3.768 93.57 3.432 95.558 3.432C98.386 3.432 100.696 4.146 102.488 5.574C104.308 6.974 105.316 8.906 105.512 11.37H100.22C100.136 10.306 99.632 9.396 98.708 8.64C97.784 7.884 96.566 7.506 95.054 7.506C93.682 7.506 92.562 7.856 91.694 8.556C90.826 9.256 90.392 10.264 90.392 11.58C90.392 12.476 90.658 13.218 91.19 13.806C91.75 14.366 92.45 14.814 93.29 15.15C94.13 15.486 95.278 15.85 96.734 16.242C98.666 16.774 100.234 17.306 101.438 17.838C102.67 18.37 103.706 19.196 104.546 20.316C105.414 21.408 105.848 22.878 105.848 24.726C105.848 26.21 105.442 27.61 104.63 28.926C103.846 30.242 102.684 31.306 101.144 32.118C99.632 32.902 97.84 33.294 95.768 33.294ZM122.754 9.48C124.518 9.48 126.086 9.858 127.458 10.614C128.858 11.37 129.95 12.49 130.734 13.974C131.546 15.458 131.952 17.25 131.952 19.35V33H127.206V20.064C127.206 17.992 126.688 16.41 125.652 15.318C124.616 14.198 123.202 13.638 121.41 13.638C119.618 13.638 118.19 14.198 117.126 15.318C116.09 16.41 115.572 17.992 115.572 20.064V33H110.784V1.92H115.572V12.546C116.384 11.566 117.406 10.81 118.638 10.278C119.898 9.746 121.27 9.48 122.754 9.48ZM147.383 33.378C145.199 33.378 143.225 32.888 141.461 31.908C139.697 30.9 138.311 29.5 137.303 27.708C136.295 25.888 135.791 23.788 135.791 21.408C135.791 19.056 136.309 16.97 137.345 15.15C138.381 13.33 139.795 11.93 141.587 10.95C143.379 9.97 145.381 9.48 147.593 9.48C149.805 9.48 151.807 9.97 153.599 10.95C155.391 11.93 156.805 13.33 157.841 15.15C158.877 16.97 159.395 19.056 159.395 21.408C159.395 23.76 158.863 25.846 157.799 27.666C156.735 29.486 155.279 30.9 153.431 31.908C151.611 32.888 149.595 33.378 147.383 33.378ZM147.383 29.22C148.615 29.22 149.763 28.926 150.827 28.338C151.919 27.75 152.801 26.868 153.473 25.692C154.145 24.516 154.481 23.088 154.481 21.408C154.481 19.728 154.159 18.314 153.515 17.166C152.871 15.99 152.017 15.108 150.953 14.52C149.889 13.932 148.741 13.638 147.509 13.638C146.277 13.638 145.129 13.932 144.065 14.52C143.029 15.108 142.203 15.99 141.587 17.166C140.971 18.314 140.663 19.728 140.663 21.408C140.663 23.9 141.293 25.832 142.553 27.204C143.841 28.548 145.451 29.22 147.383 29.22ZM168.202 13.26C169.014 12.196 170.12 11.3 171.52 10.572C172.92 9.844 174.502 9.48 176.266 9.48C178.282 9.48 180.116 9.984 181.768 10.992C183.448 11.972 184.764 13.358 185.716 15.15C186.668 16.942 187.144 19 187.144 21.324C187.144 23.648 186.668 25.734 185.716 27.582C184.764 29.402 183.448 30.83 181.768 31.866C180.116 32.874 178.282 33.378 176.266 33.378C174.502 33.378 172.934 33.028 171.562 32.328C170.19 31.6 169.07 30.704 168.202 29.64V44.004H163.414V9.858H168.202V13.26ZM182.272 21.324C182.272 19.728 181.936 18.356 181.264 17.208C180.62 16.032 179.752 15.15 178.66 14.562C177.596 13.946 176.448 13.638 175.216 13.638C174.012 13.638 172.864 13.946 171.772 14.562C170.708 15.178 169.84 16.074 169.168 17.25C168.524 18.426 168.202 19.812 168.202 21.408C168.202 23.004 168.524 24.404 169.168 25.608C169.84 26.784 170.708 27.68 171.772 28.296C172.864 28.912 174.012 29.22 175.216 29.22C176.448 29.22 177.596 28.912 178.66 28.296C179.752 27.652 180.62 26.728 181.264 25.524C181.936 24.32 182.272 22.92 182.272 21.324Z" fill="black"/>
<path d="M110.132 72H105.344L90.938 50.202V72H86.15V42.768H90.938L105.344 64.524V42.768H110.132V72ZM125.744 72.378C123.56 72.378 121.586 71.888 119.822 70.908C118.058 69.9 116.672 68.5 115.664 66.708C114.656 64.888 114.152 62.788 114.152 60.408C114.152 58.056 114.67 55.97 115.706 54.15C116.742 52.33 118.156 50.93 119.948 49.95C121.74 48.97 123.742 48.48 125.954 48.48C128.166 48.48 130.168 48.97 131.96 49.95C133.752 50.93 135.166 52.33 136.202 54.15C137.238 55.97 137.756 58.056 137.756 60.408C137.756 62.76 137.224 64.846 136.16 66.666C135.096 68.486 133.64 69.9 131.792 70.908C129.972 71.888 127.956 72.378 125.744 72.378ZM125.744 68.22C126.976 68.22 128.124 67.926 129.188 67.338C130.28 66.75 131.162 65.868 131.834 64.692C132.506 63.516 132.842 62.088 132.842 60.408C132.842 58.728 132.52 57.314 131.876 56.166C131.232 54.99 130.378 54.108 129.314 53.52C128.25 52.932 127.102 52.638 125.87 52.638C124.638 52.638 123.49 52.932 122.426 53.52C121.39 54.108 120.564 54.99 119.948 56.166C119.332 57.314 119.024 58.728 119.024 60.408C119.024 62.9 119.654 64.832 120.914 66.204C122.202 67.548 123.812 68.22 125.744 68.22ZM172.855 48.858L165.673 72H160.633L155.971 54.906L151.309 72H146.269L139.045 48.858H143.917L148.747 67.464L153.661 48.858H158.659L163.363 67.38L168.151 48.858H172.855Z" fill="#744EF9"/>
</svg>
