<svg width="26" height="26" viewBox="0 0 26 26" fill="none" xmlns="http://www.w3.org/2000/svg">
<path fill-rule="evenodd" clip-rule="evenodd" d="M18.6226 16.7684L25.6163 23.7624C25.8621 24.0084 26.0001 24.3419 26 24.6897C25.9999 25.0375 25.8616 25.371 25.6156 25.6168C25.3696 25.8626 25.0361 26.0007 24.6883 26.0006C24.3405 26.0004 24.0071 25.8622 23.7613 25.6162L16.7676 18.6222C14.6769 20.2415 12.0479 21.0036 9.41529 20.7533C6.78272 20.503 4.34437 19.2592 2.59627 17.2749C0.84818 15.2905 -0.0783409 12.7147 0.00519498 10.0715C0.0887309 7.42823 1.17605 4.91608 3.04595 3.04609C4.91586 1.1761 7.42788 0.088735 10.071 0.00519522C12.7141 -0.0783446 15.2898 0.84822 17.2741 2.59639C19.2583 4.34457 20.5021 6.78304 20.7524 9.41573C21.0026 12.0484 20.2406 14.6776 18.6213 16.7684H18.6226ZM10.4005 18.1997C12.4691 18.1997 14.4529 17.3779 15.9157 15.9151C17.3784 14.4523 18.2001 12.4684 18.2001 10.3997C18.2001 8.33098 17.3784 6.34702 15.9157 4.88423C14.4529 3.42145 12.4691 2.59967 10.4005 2.59967C8.33189 2.59967 6.34802 3.42145 4.88531 4.88423C3.42259 6.34702 2.60085 8.33098 2.60085 10.3997C2.60085 12.4684 3.42259 14.4523 4.88531 15.9151C6.34802 17.3779 8.33189 18.1997 10.4005 18.1997Z" fill="#4D4D4D"/>
</svg>
